<?xml version="1.0" encoding="UTF-8" standalone="no"?><!DOCTYPE svg PUBLIC "-//W3C//DTD SVG 1.1//EN" "http://www.w3.org/Graphics/SVG/1.1/DTD/svg11.dtd"><svg width="100%" height="100%" viewBox="0 0 2084 1563" version="1.1" xmlns="http://www.w3.org/2000/svg" xmlns:xlink="http://www.w3.org/1999/xlink" xml:space="preserve" xmlns:serif="http://www.serif.com/" style="fill-rule:evenodd;clip-rule:evenodd;stroke-linecap:round;stroke-linejoin:round;stroke-miterlimit:1.5;"><g><rect id="Artboard1" x="63.333" y="164.583" width="1956.67" height="1233.33" style="fill:none;"/><g><g transform="matrix(0.903002,0,0,1,75.9553,-1.13687e-13)"><text x="783.063px" y="699.849px" style="font-family:'Oswald-Regular', 'Oswald';font-size:345.029px;">Music PDF</text></g><g><g transform="matrix(0.903002,0,0,1,75.9553,0)"><text x="783.063px" y="1044.88px" style="font-family:'Oswald-Regular', 'Oswald';font-size:345.029px;">Genera</text></g><g transform="matrix(0.903002,0,0,1,153.169,0)"><text x="1579.1px" y="1044.88px" style="font-family:'Oswald-Regular', 'Oswald';font-size:345.029px;">tor</text></g></g></g><g><path d="M718.836,1349.45l-161.786,-216.75l323.571,-0l-161.785,216.75Z" style="stroke:#000;stroke-width:33.29px;"/><path d="M389.216,575.761c-15.302,-4.149 -30.961,-6.244 -46.672,-6.244c-113.522,-0 -205.689,107.275 -205.689,239.408c0,132.132 92.167,239.408 205.689,239.408c15.711,-0 31.37,-2.096 46.672,-6.245l-0,-466.327Z"/><path d="M380.609,569.019c-0.254,-21.322 -0.834,-44.6 0.658,-69.16c1.705,-28.05 2.997,-53.692 5.316,-74.971c3.369,-30.921 13.698,-59.492 28.968,-80.226c11.147,-15.135 23.808,-27.566 35.881,-36.095c20.02,-14.143 38.257,-19.324 44.485,-21.032c70.293,-19.276 117.947,12.512 142.809,42.791c45.345,55.224 44.743,106.049 46.137,164.149c2.073,86.37 -0.005,160.371 -0.012,165.357c-0.068,49.746 0.16,81.863 -0.103,212.954c-0.304,150.853 0.09,240.08 -0.003,259.722c-0.099,20.771 15.048,37.724 33.804,37.833c18.757,0.11 34.065,-16.665 34.164,-37.436c0.094,-19.659 -0.301,-108.965 0.003,-259.952c0.264,-131.124 0.036,-163.249 0.104,-213.008c0.007,-5.049 2.087,-79.996 -0.012,-167.47c-1.818,-75.772 -4.657,-140.766 -63.794,-212.787c-36.561,-44.528 -106.066,-93.562 -209.434,-65.216c-9.061,2.484 -35.577,10.062 -64.703,30.638c-17.446,12.325 -35.889,30.106 -51.997,51.978c-22.674,30.786 -38.774,72.87 -43.777,118.783c-2.441,22.405 -3.856,49.398 -5.651,78.933c-1.624,26.71 -1.083,52.023 -0.806,75.212c0.249,20.769 15.677,37.408 34.432,37.133c18.755,-0.276 33.78,-17.361 33.531,-38.13Z"/><path d="M487.748,616.85c0,-20.125 -14.754,-36.464 -32.927,-36.464c-18.173,-0 -32.928,16.339 -32.928,36.464l0,384.149c0,20.126 14.755,36.464 32.928,36.464c18.173,0 32.927,-16.338 32.927,-36.464l0,-384.149Z"/></g></g></svg>