<?xml version="1.0" encoding="UTF-8" standalone="no"?><!DOCTYPE svg PUBLIC "-//W3C//DTD SVG 1.1//EN" "http://www.w3.org/Graphics/SVG/1.1/DTD/svg11.dtd"><svg width="100%" height="100%" viewBox="0 0 2680 1525" version="1.1" xmlns="http://www.w3.org/2000/svg" xmlns:xlink="http://www.w3.org/1999/xlink" xml:space="preserve" xmlns:serif="http://www.serif.com/" style="fill-rule:evenodd;clip-rule:evenodd;stroke-linecap:round;stroke-linejoin:round;stroke-miterlimit:1.5;"><rect id="Artboard1" x="0" y="-0" width="2679.17" height="1524.94" style="fill:none;"/><g><g transform="matrix(5.9251,0,0,5.9251,-638.644,-1700.55)"><text x="274.111px" y="398.706px" style="font-family:'Oswald-Regular', 'Oswald';font-size:72px;fill:#fff;">Music PDF</text><text x="274.111px" y="470.706px" style="font-family:'Oswald-Regular', 'Oswald';font-size:72px;fill:#fff;">Genera<tspan x="458.071px " y="470.706px ">t</tspan>or</text></g><g><path d="M897.548,1465.02l-221.526,-267.998l443.051,-0l-221.525,267.998Z" style="fill:#fff;stroke:#fff;stroke-width:43.2px;"/><path d="M446.215,508.396c-20.952,-5.13 -42.393,-7.721 -63.905,-7.721c-155.441,0 -281.64,132.639 -281.64,296.013c-0,163.374 126.199,296.013 281.64,296.013c21.512,-0 42.953,-2.591 63.905,-7.721l-0,-576.584Z" style="fill:#fff;stroke:#fff;stroke-width:4.17px;"/><path d="M434.431,500.059c-0.349,-26.363 -1.143,-55.144 0.901,-85.511c2.334,-34.683 4.103,-66.387 7.278,-92.698c4.613,-38.231 18.756,-73.558 39.665,-99.194c15.263,-18.714 32.599,-34.083 49.13,-44.629c27.413,-17.487 52.384,-23.893 60.911,-26.005c96.249,-23.833 161.499,15.47 195.542,52.909c62.088,68.281 61.264,131.122 63.173,202.959c2.838,106.792 -0.007,198.289 -0.017,204.454c-0.093,61.508 0.22,101.219 -0.141,263.304c-0.416,186.521 0.124,296.845 -0.004,321.131c-0.135,25.682 20.605,46.643 46.287,46.778c25.682,0.136 46.643,-20.605 46.778,-46.287c0.129,-24.308 -0.411,-134.729 0.005,-321.415c0.361,-162.126 0.049,-201.847 0.142,-263.371c0.009,-6.243 2.858,-98.91 -0.016,-207.066c-2.49,-93.688 -6.377,-174.049 -87.35,-263.098c-50.062,-55.056 -145.232,-115.684 -286.769,-80.636c-12.406,3.072 -48.713,12.441 -88.594,37.882c-23.888,15.239 -49.141,37.225 -71.197,64.268c-31.047,38.065 -53.092,90.099 -59.942,146.868c-3.342,27.702 -5.28,61.077 -7.738,97.595c-2.223,33.025 -1.482,64.324 -1.103,92.995c0.341,25.68 21.466,46.253 47.146,45.913c25.68,-0.341 46.253,-21.466 45.913,-47.146Z" style="fill:#fff;"/><path d="M581.131,559.2c-0,-24.884 -20.202,-45.086 -45.086,-45.086c-24.883,0 -45.086,20.202 -45.086,45.086l0,474.976c0,24.884 20.203,45.086 45.086,45.086c24.884,0 45.086,-20.202 45.086,-45.086l-0,-474.976Z" style="fill:#fff;stroke:#fff;stroke-width:4.17px;"/></g></g></svg>