<?xml version="1.0" encoding="UTF-8" standalone="no"?><!DOCTYPE svg PUBLIC "-//W3C//DTD SVG 1.1//EN" "http://www.w3.org/Graphics/SVG/1.1/DTD/svg11.dtd"><svg width="100%" height="100%" viewBox="0 0 2084 1563" version="1.1" xmlns="http://www.w3.org/2000/svg" xmlns:xlink="http://www.w3.org/1999/xlink" xml:space="preserve" xmlns:serif="http://www.serif.com/" style="fill-rule:evenodd;clip-rule:evenodd;stroke-linecap:round;stroke-linejoin:round;stroke-miterlimit:1.5;"><rect id="Artboard1" x="0" y="0" width="2082.69" height="1562.44" style="fill:none;"/><g><g><g transform="matrix(0.906339,0,0,1,71.4651,0)"><text x="763.022px" y="697.186px" style="font-family:'Oswald-Regular', 'Oswald';font-size:372.223px;fill:#fff;">Music PDF</text></g><g><g transform="matrix(0.906339,0,0,1,71.4651,0)"><text x="763.022px" y="1069.41px" style="font-family:'Oswald-Regular', 'Oswald';font-size:372.223px;fill:#fff;">Genera</text></g><g transform="matrix(0.906339,0,0,1,152.196,0)"><text x="1624.98px" y="1069.41px" style="font-family:'Oswald-Regular', 'Oswald';font-size:372.223px;fill:#fff;">tor</text></g></g></g><g><path d="M693.477,1397.99l-175.183,-233.834l350.364,0l-175.181,233.834Z" style="fill:#fff;stroke:#fff;stroke-width:35.97px;"/><path d="M336.563,563.318c-16.569,-4.477 -33.524,-6.737 -50.536,-6.737c-122.923,-0 -222.721,115.73 -222.721,258.277c0,142.547 99.798,258.277 222.721,258.277c17.012,0 33.967,-2.261 50.536,-6.737l-0,-503.08Z" style="fill:#fff;stroke:#fff;stroke-width:3.47px;"/><path d="M327.244,556.043c-0.276,-23.002 -0.904,-48.114 0.713,-74.61c1.845,-30.261 3.244,-57.924 5.755,-80.881c3.648,-33.357 14.832,-64.18 31.367,-86.548c12.07,-16.329 25.779,-29.738 38.852,-38.94c21.678,-15.258 41.425,-20.847 48.168,-22.69c76.114,-20.795 127.714,13.498 154.635,46.164c49.099,59.577 48.447,114.407 49.957,177.086c2.244,93.178 -0.006,173.011 -0.013,178.39c-0.074,53.667 0.173,88.316 -0.112,229.738c-0.329,162.743 0.098,259.003 -0.003,280.193c-0.107,22.408 16.294,40.697 36.604,40.815c20.309,0.119 36.885,-17.978 36.992,-40.386c0.102,-21.21 -0.325,-117.554 0.003,-280.441c0.286,-141.458 0.039,-176.116 0.113,-229.797c0.007,-5.447 2.26,-86.301 -0.013,-180.669c-1.969,-81.744 -5.043,-151.861 -69.076,-229.558c-39.589,-48.037 -114.849,-100.937 -226.777,-70.356c-9.81,2.68 -38.522,10.855 -70.06,33.052c-18.89,13.297 -38.86,32.48 -56.302,56.075c-24.552,33.213 -41.985,78.614 -47.402,128.146c-2.643,24.17 -4.176,53.291 -6.12,85.153c-1.757,28.815 -1.172,56.124 -0.872,81.14c0.27,22.406 16.975,40.357 37.283,40.06c20.308,-0.297 36.577,-18.729 36.308,-41.136Z" style="fill:#fff;"/><path d="M443.254,607.645c0,-21.712 -15.975,-39.338 -35.654,-39.338c-19.677,-0 -35.654,17.626 -35.654,39.338l0,414.426c0,21.712 15.977,39.338 35.654,39.338c19.679,0 35.654,-17.626 35.654,-39.338l0,-414.426Z" style="fill:#fff;stroke:#fff;stroke-width:3.47px;"/></g></g></svg>